<svg width="24" height="24" viewBox="0 0 24 24" fill="none" xmlns="http://www.w3.org/2000/svg">
<path d="M20.954 8.8718C20.954 8.5641 20.954 8.35897 20.954 8.15385C20.7468 4.8718 18.1568 2.20513 14.8417 2C14.2201 2 13.5986 2 13.0806 2C11.5266 2 7.35108 2.20513 5.90072 2.30769C4.45036 2.41026 3.41439 3.4359 3.31079 4.76923C3.20719 6.41026 3 9.58974 3 11.9487C3 14.2051 3.20719 17.3846 3.31079 19.1282C3.41439 20.4615 4.45036 21.5897 5.79712 21.6923C7.24748 21.7949 11.423 22 12.977 22C14.5309 22 16.7065 21.7949 18.1568 21.6923C19.5036 21.5897 20.5396 20.4615 20.6432 19.1282C20.7468 17.4872 20.954 14.3077 20.954 11.9487C21.0576 11.1282 20.954 10.1026 20.954 8.8718ZM6.86906 13.1795H11.941C12.3554 13.1795 12.7698 13.4872 12.7698 14C12.7698 14.5128 12.459 14.8205 11.941 14.8205H6.86906C6.45468 14.8205 6.04029 14.5128 6.04029 14C6.04029 13.4872 6.45468 13.1795 6.86906 13.1795ZM14.0129 17.8974H6.86906C6.45468 17.8974 6.04029 17.5897 6.04029 17.0769C6.04029 16.5641 6.35108 16.2564 6.86906 16.2564H14.0129C14.4273 16.2564 14.8417 16.5641 14.8417 17.0769C14.8417 17.5897 14.4273 17.8974 14.0129 17.8974ZM16.0849 8.05128C15.3597 8.05128 14.8417 7.4359 14.8417 6.82051V3.53846C17.2245 3.74359 19.1928 5.58974 19.4 8.05128H16.0849Z" fill="#D0D5E7"/>
</svg>
