<svg width="16" height="20" viewBox="0 0 16 20" fill="none" xmlns="http://www.w3.org/2000/svg">
<path fill-rule="evenodd" clip-rule="evenodd" d="M13.1948 0.306122C14.5455 0.408163 15.5844 1.53061 15.6883 2.85714C15.7008 3.06562 15.7148 3.29325 15.7297 3.53651C15.8392 5.31732 16 7.93512 16 10C16 12.2562 15.808 15.2667 15.7008 16.9467L15.6883 17.1429C15.5844 18.4694 14.5455 19.5918 13.1948 19.6939C12.8644 19.7171 12.4965 19.7455 12.1069 19.7756C10.7813 19.8781 9.20445 20 8 20C6.79555 20 5.21874 19.8781 3.8931 19.7756C3.50349 19.7455 3.13558 19.7171 2.80519 19.6939C1.45455 19.5918 0.415584 18.4694 0.311688 17.1429C0.301266 16.9688 0.289798 16.7805 0.2776 16.5801C0.168194 14.7828 0 12.0197 0 10C0 7.74385 0.192027 4.7333 0.299183 3.05334L0.311688 2.85714C0.415584 1.53061 1.45455 0.510204 2.80519 0.408163C4.25974 0.204082 6.44156 0 8 0C9.20445 0 10.7812 0.121899 12.1069 0.224381C12.4965 0.254501 12.8644 0.282944 13.1948 0.306122ZM4.88312 12.8571C4.46753 12.8571 4.05195 12.551 4.05195 12.0408C4.05195 11.5306 4.36364 11.2245 4.88312 11.2245H11.1169C11.5325 11.2245 11.9481 11.5306 11.9481 12.0408C11.9481 12.551 11.5325 12.8571 11.1169 12.8571H4.88312ZM8 7.14286H4.88312C4.46753 7.14286 4.05195 7.44898 4.05195 7.95918C4.05195 8.46939 4.46753 8.77551 4.88312 8.77551H8C8.51948 8.77551 8.83117 8.46939 8.83117 7.95918C8.83117 7.44898 8.41558 7.14286 8 7.14286Z" fill="#D0D5E7"/>
</svg>
