<svg width="21" height="20" viewBox="0 0 21 20" fill="none" xmlns="http://www.w3.org/2000/svg">
<path d="M8.44231 0.769231V3.33333C8.44231 3.53735 8.36126 3.733 8.21701 3.87726C8.07275 4.02152 7.87709 4.10256 7.67308 4.10256C7.46906 4.10256 7.27341 4.02152 7.12915 3.87726C6.98489 3.733 6.90385 3.53735 6.90385 3.33333V0.769231C6.90385 0.565218 6.98489 0.369561 7.12915 0.225302C7.27341 0.0810437 7.46906 0 7.67308 0C7.87709 0 8.07275 0.0810437 8.21701 0.225302C8.36126 0.369561 8.44231 0.565218 8.44231 0.769231Z" fill="#D0D5E7"/>
<path d="M20.4013 3.89744C20.3534 3.23694 20.0687 2.61593 19.5995 2.14861C19.1303 1.68128 18.5081 1.39906 17.8474 1.35385C17.1808 1.30256 16.4218 1.25128 15.6218 1.21026V3.33333C15.6218 3.80936 15.4327 4.2659 15.0961 4.6025C14.7595 4.9391 14.303 5.12821 13.8269 5.12821C13.3509 5.12821 12.8944 4.9391 12.5578 4.6025C12.2212 4.2659 12.0321 3.80936 12.0321 3.33333V1.02564H9.46795V3.33333C9.46795 3.80936 9.27885 4.2659 8.94224 4.6025C8.60564 4.9391 8.14911 5.12821 7.67308 5.12821C7.19705 5.12821 6.74051 4.9391 6.40391 4.6025C6.06731 4.2659 5.87821 3.80936 5.87821 3.33333V1.21026C5.07821 1.21026 4.31923 1.30256 3.64231 1.35385C2.98236 1.40115 2.36139 1.68404 1.8926 2.15095C1.42381 2.61786 1.13842 3.23769 1.08846 3.89744C0.934615 5.79487 0.75 8.48205 0.75 10.5128C0.75 12.5436 0.934615 15.241 1.08846 17.1385C1.13869 17.7971 1.42445 18.4157 1.89344 18.8809C2.36242 19.3461 2.98325 19.6269 3.64231 19.6718C5.69359 19.8256 8.5859 20 10.75 20C12.9141 20 15.7962 19.8256 17.8474 19.6718C18.5072 19.629 19.1292 19.3489 19.5987 18.8833C20.0681 18.4176 20.3531 17.7979 20.4013 17.1385C20.5654 15.241 20.75 12.5538 20.75 10.5128C20.75 8.4718 20.5654 5.79487 20.4013 3.89744ZM6.64744 14.1538C6.37542 14.1538 6.11454 14.0458 5.9222 13.8534C5.72985 13.6611 5.6218 13.4002 5.6218 13.1282C5.6218 12.8562 5.72985 12.5953 5.9222 12.403C6.11454 12.2106 6.37542 12.1026 6.64744 12.1026C6.91945 12.1026 7.18033 12.2106 7.37267 12.403C7.56502 12.5953 7.67308 12.8562 7.67308 13.1282C7.67308 13.4002 7.56502 13.6611 7.37267 13.8534C7.18033 14.0458 6.91945 14.1538 6.64744 14.1538ZM6.64744 10.0513C6.37542 10.0513 6.11454 9.94322 5.9222 9.75088C5.72985 9.55853 5.6218 9.29766 5.6218 9.02564C5.6218 8.75362 5.72985 8.49275 5.9222 8.3004C6.11454 8.10806 6.37542 8 6.64744 8C6.91945 8 7.18033 8.10806 7.37267 8.3004C7.56502 8.49275 7.67308 8.75362 7.67308 9.02564C7.67308 9.29766 7.56502 9.55853 7.37267 9.75088C7.18033 9.94322 6.91945 10.0513 6.64744 10.0513ZM10.75 14.1538C10.478 14.1538 10.2171 14.0458 10.0248 13.8534C9.83242 13.6611 9.72436 13.4002 9.72436 13.1282C9.72436 12.8562 9.83242 12.5953 10.0248 12.403C10.2171 12.2106 10.478 12.1026 10.75 12.1026C11.022 12.1026 11.2829 12.2106 11.4752 12.403C11.6676 12.5953 11.7756 12.8562 11.7756 13.1282C11.7756 13.4002 11.6676 13.6611 11.4752 13.8534C11.2829 14.0458 11.022 14.1538 10.75 14.1538ZM10.75 10.0513C10.478 10.0513 10.2171 9.94322 10.0248 9.75088C9.83242 9.55853 9.72436 9.29766 9.72436 9.02564C9.72436 8.75362 9.83242 8.49275 10.0248 8.3004C10.2171 8.10806 10.478 8 10.75 8C11.022 8 11.2829 8.10806 11.4752 8.3004C11.6676 8.49275 11.7756 8.75362 11.7756 9.02564C11.7756 9.29766 11.6676 9.55853 11.4752 9.75088C11.2829 9.94322 11.022 10.0513 10.75 10.0513ZM14.8526 10.0513C14.5805 10.0513 14.3197 9.94322 14.1273 9.75088C13.935 9.55853 13.8269 9.29766 13.8269 9.02564C13.8269 8.75362 13.935 8.49275 14.1273 8.3004C14.3197 8.10806 14.5805 8 14.8526 8C15.1246 8 15.3855 8.10806 15.5778 8.3004C15.7701 8.49275 15.8782 8.75362 15.8782 9.02564C15.8782 9.29766 15.7701 9.55853 15.5778 9.75088C15.3855 9.94322 15.1246 10.0513 14.8526 10.0513Z" fill="#D0D5E7"/>
<path d="M14.5962 0.769231V3.33333C14.5962 3.53735 14.5151 3.733 14.3709 3.87726C14.2266 4.02152 14.0309 4.10256 13.8269 4.10256C13.6229 4.10256 13.4273 4.02152 13.283 3.87726C13.1387 3.733 13.0577 3.53735 13.0577 3.33333V0.769231C13.0577 0.565218 13.1387 0.369561 13.283 0.225302C13.4273 0.0810437 13.6229 0 13.8269 0C14.0309 0 14.2266 0.0810437 14.3709 0.225302C14.5151 0.369561 14.5962 0.565218 14.5962 0.769231Z" fill="#D0D5E7"/>
</svg>
