<svg width="20" height="20" viewBox="2 2 20 20" fill="none" xmlns="http://www.w3.org/2000/svg">
<path fill-rule="evenodd" clip-rule="evenodd" d="M12 3.53846C9.83082 3.53846 6.86615 3.73753 5.01495 3.88095C4.40616 3.92811 3.92811 4.40616 3.88095 5.01495C3.73753 6.86615 3.53846 9.83082 3.53846 12C3.53846 14.1692 3.73753 17.1338 3.88095 18.985C3.92811 19.5938 4.40616 20.0719 5.01495 20.1191C6.86615 20.2625 9.83082 20.4615 12 20.4615C14.1692 20.4615 17.1338 20.2625 18.985 20.1191C19.5938 20.0719 20.0719 19.5938 20.1191 18.985C20.2625 17.1338 20.4615 14.1692 20.4615 12C20.4615 9.83082 20.2625 6.86615 20.1191 5.01495C20.0719 4.40616 19.5938 3.92811 18.985 3.88095C17.1338 3.73753 14.1692 3.53846 12 3.53846ZM4.89612 2.34708C6.74819 2.2036 9.76547 2 12 2C14.2345 2 17.2518 2.2036 19.1039 2.34708C20.4686 2.45281 21.5472 3.53141 21.6529 4.89612C21.7964 6.74819 22 9.76547 22 12C22 14.2345 21.7964 17.2518 21.6529 19.1039C21.5472 20.4686 20.4686 21.5472 19.1039 21.6529C17.2518 21.7964 14.2345 22 12 22C9.76547 22 6.74819 21.7964 4.89612 21.6529C3.53141 21.5472 2.45281 20.4686 2.34708 19.1039C2.2036 17.2518 2 14.2345 2 12C2 9.76547 2.2036 6.74819 2.34708 4.89612C2.45281 3.53141 3.53141 2.45281 4.89612 2.34708Z" fill="#5276F4"/>
<path d="M5.01495 3.88095C6.86615 3.73753 9.83082 3.53846 12 3.53846C14.1692 3.53846 17.1338 3.73753 18.985 3.88095C19.5938 3.92811 20.0719 4.40616 20.1191 5.01495C20.2625 6.86615 20.4615 9.83082 20.4615 12C20.4615 14.1692 20.2625 17.1338 20.1191 18.985C20.0719 19.5938 19.5938 20.0719 18.985 20.1191C17.1338 20.2625 14.1692 20.4615 12 20.4615C9.83082 20.4615 6.86615 20.2625 5.01495 20.1191C4.40616 20.0719 3.92811 19.5938 3.88095 18.985C3.73753 17.1338 3.53846 14.1692 3.53846 12C3.53846 9.83082 3.73753 6.86615 3.88095 5.01495C3.92811 4.40616 4.40616 3.92811 5.01495 3.88095Z" fill="#5276F4"/>
<path fill-rule="evenodd" clip-rule="evenodd" d="M15.6208 9.40499C15.9212 9.70539 15.9212 10.1924 15.6208 10.4928L11.5183 14.5954C11.2178 14.8958 10.7308 14.8958 10.4304 14.5954L8.37911 12.5441C8.07871 12.2437 8.07871 11.7567 8.37911 11.4563C8.67951 11.1559 9.16656 11.1559 9.46697 11.4563L10.9743 12.9636L14.533 9.40499C14.8334 9.10459 15.3204 9.10459 15.6208 9.40499Z" fill="#F8F9FB"/>
</svg>
