<svg width="18" height="20" viewBox="0 0 18 20" fill="none" xmlns="http://www.w3.org/2000/svg">
<path d="M17.954 6.8718C17.954 6.5641 17.954 6.35897 17.954 6.15385C17.7468 2.8718 15.1568 0.205128 11.8417 0C11.2201 0 10.5986 0 10.0806 0C8.52662 0 4.35108 0.205128 2.90072 0.307692C1.45036 0.410256 0.414388 1.4359 0.310791 2.76923C0.207194 4.41026 0 7.58974 0 9.94872C0 12.2051 0.207194 15.3846 0.310791 17.1282C0.414388 18.4615 1.45036 19.5897 2.79712 19.6923C4.24748 19.7949 8.42302 20 9.97698 20C11.5309 20 13.7065 19.7949 15.1568 19.6923C16.5036 19.5897 17.5396 18.4615 17.6432 17.1282C17.7468 15.4872 17.954 12.3077 17.954 9.94872C18.0576 9.12821 17.954 8.10256 17.954 6.8718ZM3.86906 11.1795H8.94101C9.3554 11.1795 9.76978 11.4872 9.76978 12C9.76978 12.5128 9.45899 12.8205 8.94101 12.8205H3.86906C3.45468 12.8205 3.04029 12.5128 3.04029 12C3.04029 11.4872 3.45468 11.1795 3.86906 11.1795ZM11.0129 15.8974H3.86906C3.45468 15.8974 3.04029 15.5897 3.04029 15.0769C3.04029 14.5641 3.35108 14.2564 3.86906 14.2564H11.0129C11.4273 14.2564 11.8417 14.5641 11.8417 15.0769C11.8417 15.5897 11.4273 15.8974 11.0129 15.8974ZM13.0849 6.05128C12.3597 6.05128 11.8417 5.4359 11.8417 4.82051V1.53846C14.2245 1.74359 16.1928 3.58974 16.4 6.05128H13.0849Z" fill="#D0D5E7"/>
</svg>
