<svg width="16" height="17" viewBox="0 0 16 17" fill="none" xmlns="http://www.w3.org/2000/svg">
<path d="M14.1225 8.63708H10.6531L9.08845 10.2097C8.95239 10.3465 8.74831 10.4832 8.61226 10.5516C8.40817 10.62 8.20409 10.6884 8.00001 10.6884C7.79593 10.6884 7.59185 10.62 7.38777 10.5516C7.18368 10.4832 7.04763 10.3465 6.91158 10.2097L5.34695 8.63708H1.87756C1.60545 8.63708 1.33334 8.84221 1.33334 9.18409V11.714C1.33334 12.6713 2.08164 13.4918 3.03402 13.5602C4.4626 13.6969 6.43539 13.8337 8.00001 13.8337C9.56464 13.8337 11.5374 13.6969 12.966 13.5602C13.9184 13.4918 14.6667 12.6713 14.6667 11.714V9.18409C14.6667 8.91058 14.3946 8.63708 14.1225 8.63708Z" fill="#D0D5E7"/>
<path d="M6.77552 8.63708L7.65987 9.52597C7.7279 9.59434 7.79593 9.59434 7.79593 9.66272C7.86396 9.66272 7.93198 9.73109 8.00001 9.73109C8.06804 9.73109 8.13607 9.73109 8.20409 9.66272C8.27212 9.66272 8.34015 9.59434 8.34015 9.52597L10.381 7.47468C10.585 7.26956 10.585 6.92768 10.381 6.72255C10.2449 6.65417 10.1769 6.5858 10.0408 6.5858C9.90477 6.5858 9.76872 6.65417 9.70069 6.72255L8.54423 7.88494V3.714C8.54423 3.4405 8.34015 3.16699 8.00001 3.16699C7.65987 3.16699 7.45579 3.4405 7.45579 3.714V7.95332L6.29933 6.79092C6.2313 6.65417 6.09525 6.5858 5.95919 6.5858C5.82314 6.5858 5.68709 6.65417 5.61906 6.79092C5.41498 6.99605 5.41498 7.33793 5.61906 7.54306L6.77552 8.63708Z" fill="#D0D5E7"/>
</svg>
