<svg width="16" height="16" viewBox="0 0 16 16" fill="none" xmlns="http://www.w3.org/2000/svg">
<path d="M13.9932 2.85652L13.0943 1.95384C12.2703 1.12639 10.9969 1.12639 10.1729 1.95384L8.67481 3.53353L12.495 7.36992L14.0681 5.79023C14.4426 5.41412 14.6673 4.88755 14.6673 4.36099C14.6673 3.83443 14.3677 3.23264 13.9932 2.85652Z" fill="#D0D5E7"/>
<path d="M10.8471 7.2947L7.85084 4.28577L1.93324 10.2284C1.5587 10.6045 1.33398 11.1311 1.33398 11.7329V14.0648C1.33398 14.3657 1.5587 14.6666 1.93324 14.6666H4.33024C4.85458 14.6666 5.37893 14.4409 5.82837 14.0648L11.746 8.12216L10.8471 7.2947Z" fill="#D0D5E7"/>
</svg>
