<svg width="16" height="17" viewBox="0 0 16 17" fill="none" xmlns="http://www.w3.org/2000/svg">
<path d="M3.41877 5.93557C3.41877 7.43985 3.41877 9.5595 3.41877 10.5851C3.48715 11.474 3.55552 12.6364 3.6239 13.4569C3.69228 14.4142 4.51279 15.1663 5.47005 15.1663H10.5299C11.4871 15.1663 12.3077 14.4142 12.376 13.4569C12.4444 12.6364 12.5128 11.474 12.5812 10.5851C12.6495 9.5595 12.5812 7.43985 12.5812 5.93557H3.41877Z" fill="#D0D5E7"/>
<path d="M12.7863 3.88429H11.0769L10.5299 2.85865C10.188 2.24326 9.57264 1.83301 8.88888 1.83301H7.24785C6.56409 1.83301 5.88033 2.24326 5.60683 2.85865L4.92307 3.88429H3.21367C2.94016 3.88429 2.66666 4.15779 2.66666 4.4313C2.66666 4.7048 2.94016 4.97831 3.21367 4.97831H12.7863C13.0598 4.97831 13.3333 4.77318 13.3333 4.4313C13.3333 4.08942 13.0598 3.88429 12.7863 3.88429ZM6.08546 3.88429L6.42734 3.33728C6.56409 3.06378 6.8376 2.85865 7.17948 2.85865H8.8205C9.16238 2.85865 9.43589 2.9954 9.57264 3.33728L9.91452 3.88429H6.08546Z" fill="#D0D5E7"/>
</svg>
