<svg width="40" height="40" viewBox="0 0 40 40" fill="none" xmlns="http://www.w3.org/2000/svg">
<path d="M20 19.6595C24.5316 19.6595 28.2051 16.0047 28.2051 11.4963C28.2051 6.98783 24.5316 3.33301 20 3.33301C15.4685 3.33301 11.7949 6.98783 11.7949 11.4963C11.7949 16.0047 15.4685 19.6595 20 19.6595Z" fill="#EEF0F6"/>
<path d="M24.2735 23.0611H15.7265C10.7693 23.0611 6.66669 27.1427 6.66669 32.0747C6.66669 33.2651 7.17951 34.2856 8.20515 34.7958C9.74361 35.6461 13.1624 36.6665 20 36.6665C26.8376 36.6665 30.2564 35.6461 31.7949 34.7958C32.6496 34.2856 33.3334 33.2651 33.3334 32.0747C33.3334 26.9726 29.2308 23.0611 24.2735 23.0611Z" fill="#EEF0F6"/>
</svg>
