<svg width="113" height="113" viewBox="0 0 113 113" fill="none" xmlns="http://www.w3.org/2000/svg">
<path d="M76.4922 53.6174C89.2409 53.6174 99.6716 43.2399 99.6716 30.5563C99.6716 17.8726 89.2409 7.49514 76.4922 7.49514C75.9127 7.49514 75.3332 7.49514 74.7537 7.49514C78.2307 13.2604 80.5486 20.1788 80.5486 27.0971C80.5486 36.8981 76.4922 46.1225 70.1179 53.0408C71.8563 53.6174 74.1743 53.6174 76.4922 53.6174Z" fill="#EEF0F6"/>
<path d="M86.3437 65.7236H80.5488C89.2411 73.2185 95.0359 84.749 95.0359 97.4326C95.0359 100.315 94.4565 102.621 93.877 104.927C101.41 103.774 106.046 102.045 108.944 100.315C111.841 98.5857 113 95.703 113 92.2439C113 77.8307 100.831 65.7236 86.3437 65.7236Z" fill="#EEF0F6"/>
<path d="M41.7228 53.6171C48.6766 53.6171 54.4715 51.311 59.6869 46.6988C65.4817 42.0865 68.3791 34.5917 68.3791 27.0968C68.3791 21.3315 66.6407 15.5662 63.1638 11.5306C58.5279 4.61222 50.9946 0 41.7228 0C27.2357 0 15.0665 12.1071 15.0665 26.5203C15.0665 41.51 27.2357 53.6171 41.7228 53.6171Z" fill="#EEF0F6"/>
<path d="M57.3691 67.4543C55.6306 67.4543 54.4716 66.8778 52.7332 66.8778H30.7127C13.9076 66.8778 0 80.7145 0 97.4338C0 101.469 1.73846 104.352 4.63588 106.658C9.27177 109.541 20.282 113 41.7229 113C63.1639 113 73.5946 109.541 78.81 106.658C78.81 106.658 79.3895 106.082 79.969 106.082C82.2869 104.352 84.0254 101.469 84.0254 97.4338C83.4459 82.444 72.4357 69.7604 57.3691 67.4543Z" fill="#EEF0F6"/>
</svg>
