<svg width="32" height="16" viewBox="0 0 32 16" fill="none" xmlns="http://www.w3.org/2000/svg">
<path fill-rule="evenodd" clip-rule="evenodd" d="M2.29022 7.66275C2.10838 7.45493 2.12944 7.13905 2.33726 6.95721L7.67059 2.29054C7.8591 2.12559 8.14058 2.12559 8.32909 2.29054L13.6624 6.95721C13.8702 7.13905 13.8913 7.45493 13.7095 7.66275C13.5276 7.87057 13.2117 7.89163 13.0039 7.70979L8.49984 3.76871L8.49984 13.3335C8.49984 13.6096 8.27599 13.8335 7.99984 13.8335C7.7237 13.8335 7.49984 13.6096 7.49984 13.3335L7.49984 3.76871L2.99576 7.70979C2.78794 7.89163 2.47206 7.87057 2.29022 7.66275Z" fill="#D0D5E7"/>
<path fill-rule="evenodd" clip-rule="evenodd" d="M29.7095 8.33725C29.8914 8.54507 29.8703 8.86095 29.6625 9.04279L24.3292 13.7095C24.1407 13.8744 23.8592 13.8744 23.6707 13.7095L18.3373 9.04279C18.1295 8.86095 18.1085 8.54507 18.2903 8.33725C18.4721 8.12943 18.788 8.10837 18.9958 8.29022L23.4999 12.2313L23.4999 2.6665C23.4999 2.39036 23.7238 2.1665 23.9999 2.1665C24.2761 2.1665 24.4999 2.39036 24.4999 2.6665L24.4999 12.2313L29.004 8.29022C29.2118 8.10837 29.5277 8.12943 29.7095 8.33725Z" fill="#D0D5E7"/>
</svg>
