<svg width="16" height="16" viewBox="0 0 16 16" fill="none" xmlns="http://www.w3.org/2000/svg">
<path fill-rule="evenodd" clip-rule="evenodd" d="M2.81792 2.81767C3.01948 2.61611 3.34627 2.61611 3.54784 2.81767L8.00008 7.26992L12.4523 2.81767C12.6539 2.61611 12.9807 2.61611 13.1822 2.81767C13.3838 3.01924 13.3838 3.34603 13.1822 3.54759L8.73 7.99984L13.1822 12.4521C13.3838 12.6536 13.3838 12.9804 13.1822 13.182C12.9807 13.3836 12.6539 13.3836 12.4523 13.182L8.00008 8.72975L3.54784 13.182C3.34627 13.3836 3.01948 13.3836 2.81792 13.182C2.61636 12.9804 2.61636 12.6536 2.81792 12.4521L7.27016 7.99984L2.81792 3.54759C2.61636 3.34603 2.61636 3.01924 2.81792 2.81767Z" fill="#9AA4CB"/>
</svg>
