<svg width="16" height="16" viewBox="0 0 16 16" fill="none" xmlns="http://www.w3.org/2000/svg">
<path fill-rule="evenodd" clip-rule="evenodd" d="M2.81816 2.81792C3.01972 2.61636 3.34652 2.61636 3.54808 2.81792L8.00033 7.27016L12.4526 2.81792C12.6541 2.61636 12.9809 2.61636 13.1825 2.81792C13.384 3.01948 13.384 3.34627 13.1825 3.54784L8.73024 8.00008L13.1825 12.4523C13.384 12.6539 13.384 12.9807 13.1825 13.1822C12.9809 13.3838 12.6541 13.3838 12.4526 13.1822L8.00033 8.73L3.54808 13.1822C3.34652 13.3838 3.01972 13.3838 2.81816 13.1822C2.6166 12.9807 2.6166 12.6539 2.81816 12.4523L7.27041 8.00008L2.81816 3.54784C2.6166 3.34627 2.6166 3.01948 2.81816 2.81792Z" fill="#D0D5E7"/>
</svg>
