<svg width="144" height="144" viewBox="0 0 144 144" fill="none" xmlns="http://www.w3.org/2000/svg">
<circle cx="72" cy="72" r="72" fill="url(#paint0_linear)"/>
<path d="M97.8418 53.0308C97.5669 49.457 94.8178 46.4329 90.969 46.158C85.4707 45.6082 77.7731 45.3333 71.9999 45.3333C66.2267 45.3333 58.5291 45.6082 53.0308 46.158C51.1064 46.158 49.457 46.9827 48.3573 48.3573C47.2577 49.7319 46.4329 51.1064 46.158 53.0308C45.6082 58.5291 45.3333 66.2267 45.3333 71.9999C45.3333 77.7731 45.8831 85.4707 46.158 90.969C46.4329 94.5429 49.182 97.5669 53.0308 97.8418C58.5291 98.3917 66.2267 98.6666 71.9999 98.6666C77.7731 98.6666 85.4707 98.1168 90.969 97.8418C94.5429 97.5669 97.5669 94.8178 97.8418 90.969C98.3917 85.4707 98.6666 77.7731 98.6666 71.9999C98.6666 66.2267 98.3917 58.5291 97.8418 53.0308ZM63.2027 82.9965C63.2027 84.0961 62.3779 85.1958 61.0034 85.1958C59.6288 85.1958 58.804 84.0961 58.804 82.9965V61.0034C58.804 59.9037 59.6288 58.804 61.0034 58.804C62.3779 58.804 63.2027 59.9037 63.2027 61.0034V82.9965ZM74.1992 82.9965C74.1992 84.0961 73.3745 85.1958 71.9999 85.1958C70.6253 85.1958 69.8006 84.3711 69.8006 82.9965V71.9999C69.8006 70.9003 70.6253 69.8006 71.9999 69.8006C73.3745 69.8006 74.1992 70.6253 74.1992 71.9999V82.9965ZM85.1958 82.9965C85.1958 84.0961 84.3711 85.1958 82.9965 85.1958C81.6219 85.1958 80.7972 84.3711 80.7972 82.9965V61.0034C80.7972 59.9037 81.6219 58.804 82.9965 58.804C84.3711 58.804 85.1958 59.6288 85.1958 61.0034V82.9965Z" fill="#CAD5FC"/>
<defs>
<linearGradient id="paint0_linear" x1="13.7926" y1="6.28186" x2="122.897" y2="112.959" gradientUnits="userSpaceOnUse">
<stop stop-color="#E7ECFD"/>
<stop offset="1" stop-color="#F5F7FE"/>
</linearGradient>
</defs>
</svg>
