<svg width="28" height="24" viewBox="0 0 28 24" fill="none" xmlns="http://www.w3.org/2000/svg">
<path d="M15.0256 6.6C15.0256 8.58823 13.4185 10.2 11.4359 10.2C9.45334 10.2 7.84615 8.58823 7.84615 6.6C7.84615 4.61177 9.45334 3 11.4359 3C13.4185 3 15.0256 4.61177 15.0256 6.6Z" fill="#D0D5E7"/>
<path fill-rule="evenodd" clip-rule="evenodd" d="M4 6.6C4 6.17395 4.3444 5.82857 4.76923 5.82857H7.84615C8.27099 5.82857 8.61539 6.17395 8.61539 6.6C8.61539 7.02605 8.27099 7.37143 7.84615 7.37143H4.76923C4.3444 7.37143 4 7.02605 4 6.6Z" fill="#D0D5E7"/>
<path fill-rule="evenodd" clip-rule="evenodd" d="M16.3077 6.6C16.3077 6.17395 16.6521 5.82857 17.0769 5.82857L23.2308 5.82857C23.6556 5.82857 24 6.17395 24 6.6C24 7.02605 23.6556 7.37143 23.2308 7.37143L17.0769 7.37143C16.6521 7.37143 16.3077 7.02605 16.3077 6.6Z" fill="#D0D5E7"/>
<path d="M12.9744 17.4C12.9744 19.3882 14.5815 21 16.5641 21C18.5467 21 20.1538 19.3882 20.1538 17.4C20.1538 15.4118 18.5467 13.8 16.5641 13.8C14.5815 13.8 12.9744 15.4118 12.9744 17.4Z" fill="#D0D5E7"/>
<path fill-rule="evenodd" clip-rule="evenodd" d="M24 17.4C24 16.974 23.6556 16.6286 23.2308 16.6286H20.1538C19.729 16.6286 19.3846 16.974 19.3846 17.4C19.3846 17.826 19.729 18.1714 20.1538 18.1714H23.2308C23.6556 18.1714 24 17.826 24 17.4Z" fill="#D0D5E7"/>
<path fill-rule="evenodd" clip-rule="evenodd" d="M11.6923 17.4C11.6923 16.974 11.3479 16.6286 10.9231 16.6286L4.76923 16.6286C4.3444 16.6286 4 16.974 4 17.4C4 17.826 4.3444 18.1714 4.76923 18.1714L10.9231 18.1714C11.3479 18.1714 11.6923 17.826 11.6923 17.4Z" fill="#D0D5E7"/>
</svg>
