<svg width="53" height="71" viewBox="0 0 53 71" fill="none" xmlns="http://www.w3.org/2000/svg">
<g clip-path="url(#clip0)">
<path d="M41.1341 10.25H32.5062C30.1155 10.2612 27.8265 11.2294 26.1397 12.9429C24.453 14.6564 23.5058 16.9757 23.5053 19.3936V31.4941C23.505 33.1578 22.8514 34.7534 21.6882 35.9298C20.525 37.1062 18.9474 37.7673 17.3023 37.7675C15.6572 37.7675 14.0794 37.1066 12.9162 35.9301C11.7529 34.7536 11.0994 33.1579 11.0994 31.4941V14.8238C11.0994 13.6107 10.6229 12.4474 9.77478 11.5896C8.92666 10.7319 7.77637 10.25 6.57695 10.25C4.07901 10.25 0.363281 11.925 0.363281 14.4494L2.05455 33.1573C2.05455 36.9101 3.5286 40.5092 6.15242 43.1628C8.77624 45.8164 12.3349 47.3072 16.0455 47.3072H18.5581C21.9234 47.3069 25.1758 46.0801 27.7193 43.8515C30.2628 41.6229 31.927 38.5419 32.4069 35.1732H43.5258V42.9936C43.5258 45.376 43.1546 47.0816 45.5103 47.0816L46.0413 47.9881C48.397 47.9881 52.0562 46.0904 52.0562 42.9936V21.3002C52.0562 18.3702 50.9056 15.5601 48.8574 13.4879C46.8092 11.4157 44.0312 10.251 41.1341 10.25ZM32.5491 28.1628V23.7674C32.5491 22.1012 33.2506 20.4942 34.5239 19.437C35.5084 18.62 36.743 18.1745 38.0165 18.1768C39.4782 18.1768 40.88 18.764 41.9136 19.8093C42.9471 20.8546 43.5278 22.2723 43.5278 23.7506V28.1628H32.5491Z" fill="#CAD5FC"/>
<path d="M39.0766 10.9424H30.4488C28.0586 10.9557 25.7709 11.9253 24.0856 13.6394C22.4002 15.3535 21.4543 17.6726 21.4546 20.0899V32.1865C21.4544 33.8502 20.8008 35.4457 19.6375 36.6222C18.4743 37.7986 16.8967 38.4597 15.2517 38.4599C13.6065 38.4599 12.0288 37.799 10.8655 36.6225C9.70224 35.446 9.04871 33.8503 9.04871 32.1865V15.5162C9.04871 14.3031 8.57224 13.1398 7.72413 12.282C6.87601 11.4243 5.72572 10.9424 4.52631 10.9424C3.32689 10.9424 2.1766 11.4243 1.32848 12.282C0.480369 13.1398 0.00390625 14.3031 0.00390625 15.5162V33.8497C0.00390625 37.6025 1.47795 41.2016 4.10177 43.8552C6.72559 46.5088 10.2843 47.9996 13.9949 47.9996H16.5075C19.8727 47.9993 23.1252 46.7725 25.6687 44.5439C28.2122 42.3153 29.8764 39.2343 30.3562 35.8656H41.4752V43.685C41.475 44.2515 41.5853 44.8126 41.7996 45.336C42.0139 45.8595 42.328 46.3352 42.7241 46.7358C43.1201 47.1365 43.5904 47.4543 44.1079 47.6712C44.6255 47.888 45.1802 47.9996 45.7404 47.9996C46.8718 47.9996 47.957 47.545 48.757 46.7359C49.5571 45.9267 50.0065 44.8293 50.0065 43.685V21.9926C50.0065 20.5411 49.7238 19.1039 49.1745 17.7629C48.6252 16.422 47.82 15.2037 46.805 14.1775C45.79 13.1514 44.5851 12.3375 43.259 11.7824C41.933 11.2273 40.5118 10.9419 39.0766 10.9424ZM30.4946 28.8591V24.4598C30.4946 22.7936 31.196 21.1866 32.4693 20.1293C33.4533 19.3128 34.6872 18.8673 35.96 18.8691C37.4217 18.8691 38.8235 19.4564 39.8571 20.5017C40.8906 21.547 41.4713 22.9647 41.4713 24.443V28.8591H30.4946Z" fill="#5276F4"/>
<path d="M26.4828 8.37901C28.7706 8.37901 30.6252 6.50331 30.6252 4.18951C30.6252 1.87571 28.7706 0 26.4828 0C24.195 0 22.3403 1.87571 22.3403 4.18951C22.3403 6.50331 24.195 8.37901 26.4828 8.37901Z" fill="#CAD5FC"/>
<path d="M25.6605 8.93272C27.9483 8.93272 29.803 7.05702 29.803 4.74322C29.803 2.42942 27.9483 0.553711 25.6605 0.553711C23.3727 0.553711 21.5181 2.42942 21.5181 4.74322C21.5181 7.05702 23.3727 8.93272 25.6605 8.93272Z" fill="#5276F4"/>
</g>
<path d="M2.61185 70.9684C0.870615 70.9684 0 70.0952 0 68.3488V54.7143C0 53.8726 0.254814 53.2309 0.764443 52.789C1.29531 52.3472 1.91111 52.1262 2.61185 52.1262C3.31258 52.1262 3.91777 52.3472 4.4274 52.789C4.95826 53.2309 5.22369 53.8726 5.22369 54.7143V65.7292H8.02665C8.83356 65.7292 9.44936 65.9922 9.87405 66.5183C10.2987 67.0233 10.5111 67.6334 10.5111 68.3488C10.5111 69.0642 10.2987 69.6849 9.87405 70.211C9.44936 70.7159 8.83356 70.9684 8.02665 70.9684H2.61185Z" fill="#5276F4"/>
<path d="M17.137 68.3488C17.137 69.1905 16.8716 69.8322 16.3407 70.2741C15.8311 70.7159 15.2259 70.9369 14.5252 70.9369C13.8032 70.9369 13.1768 70.7159 12.6459 70.2741C12.1363 69.8322 11.8815 69.1905 11.8815 68.3488V54.7143C11.8815 53.8726 12.1363 53.2309 12.6459 52.789C13.1768 52.3472 13.8032 52.1262 14.5252 52.1262C15.2259 52.1262 15.8311 52.3472 16.3407 52.789C16.8716 53.2309 17.137 53.8726 17.137 54.7143V68.3488Z" fill="#5276F4"/>
<path d="M33.1393 64.9402C33.1393 68.959 31.1645 70.9684 27.2148 70.9684H21.9912C20.3136 70.9684 19.4749 70.1268 19.4749 68.4435V68.3488C19.5173 66.6024 20.3667 65.7292 22.023 65.7292H27.5015C27.8625 65.7292 28.1279 65.6346 28.2978 65.4452C28.4677 65.2348 28.5526 65.0138 28.5526 64.7824C28.5526 64.5509 28.4677 64.3405 28.2978 64.1512C28.1279 63.9408 27.8625 63.8355 27.5015 63.8355H24.7941C21.0568 63.8355 19.1882 61.9313 19.1882 58.1229C19.1882 54.1041 21.1842 52.0947 25.1763 52.0947H29.3808C31.0583 52.0947 31.8971 52.9363 31.8971 54.6196V54.7143C31.8546 56.4607 31.0052 57.3339 29.3489 57.3339H24.826C24.465 57.3339 24.1995 57.4391 24.0297 57.6495C23.8598 57.8389 23.7749 58.0493 23.7749 58.2807C23.7749 58.5122 23.8598 58.7331 24.0297 58.9435C24.1995 59.1329 24.465 59.2276 24.826 59.2276H27.5334C31.2706 59.2276 33.1393 61.1318 33.1393 64.9402Z" fill="#5276F4"/>
<path d="M42.126 63.2043H44.6741L43.4956 59.8272L42.126 63.2043ZM46.1074 67.3073H40.4697L39.6734 69.3272C39.4398 69.9164 39.1107 70.3477 38.686 70.6213C38.2825 70.8738 37.8366 71 37.3482 71C36.9872 71 36.6368 70.9474 36.2971 70.8422C35.9786 70.7159 35.6813 70.5476 35.4052 70.3372C35.1292 70.1058 34.9062 69.8427 34.7363 69.5482C34.5877 69.2536 34.5134 68.9169 34.5134 68.5382C34.5134 68.1595 34.5877 67.8123 34.7363 67.4967L41.0111 53.7674C41.2872 53.1783 41.6588 52.7364 42.126 52.4419C42.5931 52.1473 43.0709 52 43.5593 52C44.0477 52 44.5148 52.1473 44.9608 52.4419C45.4279 52.7364 45.7783 53.1783 46.0119 53.7674L51.777 67.4967C51.9257 67.8123 52 68.1595 52 68.5382C52 68.8959 51.9151 69.2326 51.7452 69.5482C51.5965 69.8427 51.3842 70.1058 51.1082 70.3372C50.8321 70.5476 50.5242 70.7159 50.1845 70.8422C49.8447 70.9474 49.5049 71 49.1652 71C48.6768 71 48.2203 70.8738 47.7956 70.6213C47.3709 70.3477 47.0524 69.9164 46.84 69.3272L46.1074 67.3073Z" fill="#5276F4"/>
<defs>
<clipPath id="clip0">
<rect width="52.0563" height="48" fill="white"/>
</clipPath>
</defs>
</svg>
