<svg width="24" height="25" viewBox="0 0 24 25" fill="none" xmlns="http://www.w3.org/2000/svg">
<path d="M9.07689 2.65098C8.35894 2.44585 7.23074 2.24072 6.41023 2.24072C5.58973 2.24072 4.46153 2.44585 3.74358 2.65098C3.02564 2.75354 2.51282 3.26636 2.41025 3.9843C2.20513 4.70225 2 5.83045 2 6.65096C2 7.47147 2.20513 8.59967 2.30769 9.31761C2.41025 10.0356 3.02564 10.5484 3.64102 10.6509C4.35896 10.7535 5.48716 10.9586 6.30767 10.9586C7.12818 10.9586 8.25638 10.7535 8.97432 10.6509C9.69227 10.5484 10.2051 9.93299 10.3077 9.31761C10.4102 8.59967 10.6153 7.47147 10.6153 6.65096C10.6153 5.83045 10.4102 4.70225 10.3077 3.9843C10.3077 3.26636 9.79483 2.75354 9.07689 2.65098Z" fill="#9AA4CB"/>
<path d="M9.07684 13.933C8.35889 13.8305 7.23069 13.6253 6.41018 13.6253C5.58968 13.6253 4.46148 13.8305 3.74353 13.933C3.02559 14.0356 2.51277 14.651 2.4102 15.2664C2.30764 15.9843 2.10251 17.1125 2.10251 17.933C2.10251 18.7535 2.30764 19.8817 2.4102 20.5997C2.51277 21.3176 3.12815 21.8304 3.74353 21.933C4.46148 22.0356 5.58968 22.2407 6.41018 22.2407C7.23069 22.2407 8.35889 22.0356 9.07684 21.933C9.79478 21.8304 10.3076 21.215 10.4102 20.5997C10.5127 19.8817 10.7179 18.7535 10.7179 17.933C10.7179 17.1125 10.5127 15.9843 10.4102 15.2664C10.3076 14.5484 9.79478 14.0356 9.07684 13.933Z" fill="#9AA4CB"/>
<path d="M15.0255 10.6511C15.7435 10.7537 16.8717 10.9588 17.6922 10.9588C18.5127 10.9588 19.6409 10.7537 20.3588 10.6511C21.0768 10.5486 21.5896 9.93319 21.6921 9.3178C21.7947 8.59986 21.9998 7.47166 21.9998 6.65115C21.9998 5.83064 21.7947 4.70244 21.6921 3.9845C21.5896 3.26655 20.9742 2.75373 20.3588 2.65117C19.6409 2.54861 18.5127 2.34348 17.6922 2.34348C16.8717 2.34348 15.7435 2.54861 15.0255 2.65117C14.3076 2.75373 13.7947 3.36912 13.6922 3.9845C13.5896 4.70244 13.3845 5.83064 13.3845 6.65115C13.3845 7.47166 13.5896 8.59986 13.6922 9.3178C13.7947 10.0357 14.3076 10.5486 15.0255 10.6511Z" fill="#9AA4CB"/>
<path d="M20.3588 13.933C19.6409 13.8305 18.5127 13.6253 17.6922 13.6253C16.8717 13.6253 15.7435 13.8305 15.0255 13.933C14.3076 14.0356 13.7947 14.651 13.6922 15.2664C13.5896 15.9843 13.3845 17.1125 13.3845 17.933C13.3845 18.7535 13.5896 19.8817 13.6922 20.5997C13.7947 21.3176 14.4101 21.8304 15.0255 21.933C15.7435 22.0356 16.8717 22.2407 17.6922 22.2407C18.5127 22.2407 19.6409 22.0356 20.3588 21.933C21.0768 21.8304 21.5896 21.215 21.6921 20.5997C21.7947 19.8817 21.9998 18.7535 21.9998 17.933C21.9998 17.1125 21.7947 15.9843 21.6921 15.2664C21.5896 14.5484 21.0768 14.0356 20.3588 13.933Z" fill="#9AA4CB"/>
</svg>
