<svg width="24" height="25" viewBox="0 0 24 25" fill="none" xmlns="http://www.w3.org/2000/svg">
<path d="M21.6907 5.12732C21.5876 3.78711 20.5567 2.65309 19.1134 2.55C17.0515 2.34382 14.1649 2.24072 12 2.24072C9.83505 2.24072 6.94845 2.34382 4.8866 2.55C4.16495 2.55 3.54639 2.85928 3.13402 3.37474C2.72165 3.89021 2.41237 4.40567 2.30928 5.12732C2.10309 7.18918 2 10.0758 2 12.2407C2 14.4057 2.20619 17.2923 2.30928 19.3541C2.41237 20.6943 3.4433 21.8284 4.8866 21.9314C6.94845 22.1376 9.83505 22.2407 12 22.2407C14.1649 22.2407 17.0515 22.0345 19.1134 21.9314C20.4536 21.8284 21.5876 20.7974 21.6907 19.3541C21.8969 17.2923 22 14.4057 22 12.2407C22 10.0758 21.8969 7.18918 21.6907 5.12732ZM8.70103 16.3644C8.70103 16.7768 8.39175 17.1892 7.87629 17.1892C7.36082 17.1892 7.05155 16.7768 7.05155 16.3644V8.11701C7.05155 7.70464 7.36082 7.29227 7.87629 7.29227C8.39175 7.29227 8.70103 7.70464 8.70103 8.11701V16.3644ZM12.8247 16.3644C12.8247 16.7768 12.5155 17.1892 12 17.1892C11.4845 17.1892 11.1753 16.8799 11.1753 16.3644V12.2407C11.1753 11.8284 11.4845 11.416 12 11.416C12.5155 11.416 12.8247 11.7253 12.8247 12.2407V16.3644ZM16.9485 16.3644C16.9485 16.7768 16.6392 17.1892 16.1237 17.1892C15.6082 17.1892 15.299 16.8799 15.299 16.3644V8.11701C15.299 7.70464 15.6082 7.29227 16.1237 7.29227C16.6392 7.29227 16.9485 7.60155 16.9485 8.11701V16.3644Z" fill="#9AA4CB"/>
</svg>
