<svg width="24" height="25" viewBox="0 0 24 25" fill="none" xmlns="http://www.w3.org/2000/svg">
<path d="M19.7551 4.38358C18.4286 3.05705 16.5918 2.24072 14.6531 2.24072C12.7143 2.24072 10.8776 2.95501 9.55102 4.38358C7.71429 6.22031 7 8.87338 7.61224 11.3224C7.71429 11.7305 7.61224 11.8326 7.61224 11.8326L2.20408 17.2407C2.10204 17.3428 2 17.5468 2 17.7509V21.4244C2 21.8326 2.30612 22.2407 2.81633 22.2407H6.4898C6.69388 22.2407 6.89796 22.1387 7 22.0366L12.4082 16.6285C12.5102 16.5264 12.7143 16.4244 12.9184 16.5264C15.4694 17.2407 18.1224 16.4244 19.8571 14.5877C21.1837 13.2611 22 11.5264 22 9.6897V9.48562C21.898 7.64889 21.0816 5.71011 19.7551 4.38358ZM14.9592 10.1999C14.449 10.1999 13.9388 9.6897 13.9388 9.1795C13.9388 8.66929 14.449 8.15909 14.9592 8.15909C15.4694 8.15909 15.9796 8.66929 15.9796 9.1795C15.9796 9.6897 15.4694 10.1999 14.9592 10.1999Z" fill="#9AA4CB"/>
</svg>
