<svg width="24" height="25" viewBox="0 0 24 25" fill="none" xmlns="http://www.w3.org/2000/svg">
<path d="M21.4115 6.13816C21.3613 5.47677 21.0744 4.85563 20.6035 4.38849C20.1326 3.92136 19.5092 3.63951 18.8474 3.59457C18.1808 3.54329 17.4218 3.492 16.6218 3.45098V5.57406C16.6218 6.05009 16.4327 6.50662 16.0961 6.84322C15.7595 7.17983 15.303 7.36893 14.8269 7.36893C14.3509 7.36893 13.8944 7.17983 13.5578 6.84322C13.2212 6.50662 13.0321 6.05009 13.0321 5.57406V3.26636H10.4679V5.57406C10.4679 6.05009 10.2788 6.50662 9.94224 6.84322C9.60564 7.17983 9.14911 7.36893 8.67308 7.36893C8.19705 7.36893 7.74051 7.17983 7.40391 6.84322C7.06731 6.50662 6.87821 6.05009 6.87821 5.57406V3.45098C6.07821 3.45098 5.31923 3.54329 4.64231 3.59457C3.98481 3.6386 3.36546 3.91913 2.89872 4.38431C2.42761 4.85324 2.14014 5.47547 2.08846 6.13816C1.93462 8.03559 1.75 10.733 1.75 12.7535C1.75 14.7741 1.93462 17.4715 2.08846 19.3792C2.14076 20.0371 2.42718 20.6545 2.89575 21.1193C3.36432 21.5841 3.98398 21.8655 4.64231 21.9125C6.3141 22.0356 9.44231 22.2407 11.75 22.2407C14.0577 22.2407 17.1859 22.0356 18.8474 21.9125C19.5076 21.8679 20.1297 21.5875 20.6004 21.1225C21.0711 20.6574 21.3589 20.0387 21.4115 19.3792C21.5654 17.4715 21.75 14.7741 21.75 12.7535C21.75 10.733 21.5654 8.03559 21.4115 6.13816ZM11.75 16.0869H7.64744C7.44342 16.0869 7.24777 16.0058 7.10351 15.8616C6.95925 15.7173 6.87821 15.5217 6.87821 15.3176C6.87821 15.1136 6.95925 14.918 7.10351 14.7737C7.24777 14.6295 7.44342 14.5484 7.64744 14.5484H11.75C11.954 14.5484 12.1497 14.6295 12.2939 14.7737C12.4382 14.918 12.5192 15.1136 12.5192 15.3176C12.5192 15.5217 12.4382 15.7173 12.2939 15.8616C12.1497 16.0058 11.954 16.0869 11.75 16.0869ZM15.8526 11.9843H7.64744C7.44342 11.9843 7.24777 11.9033 7.10351 11.759C6.95925 11.6148 6.87821 11.4191 6.87821 11.2151C6.87821 11.0111 6.95925 10.8154 7.10351 10.6712C7.24777 10.5269 7.44342 10.4459 7.64744 10.4459H15.8526C16.0566 10.4459 16.2522 10.5269 16.3965 10.6712C16.5408 10.8154 16.6218 11.0111 16.6218 11.2151C16.6218 11.4191 16.5408 11.6148 16.3965 11.759C16.2522 11.9033 16.0566 11.9843 15.8526 11.9843Z" fill="#9AA4CB"/>
<path d="M9.44231 3.00995V5.57406C9.44231 5.77807 9.36126 5.97373 9.21701 6.11798C9.07275 6.26224 8.87709 6.34329 8.67308 6.34329C8.46906 6.34329 8.27341 6.26224 8.12915 6.11798C7.98489 5.97373 7.90385 5.77807 7.90385 5.57406V3.00995C7.90385 2.80594 7.98489 2.61028 8.12915 2.46603C8.27341 2.32177 8.46906 2.24072 8.67308 2.24072C8.87709 2.24072 9.07275 2.32177 9.21701 2.46603C9.36126 2.61028 9.44231 2.80594 9.44231 3.00995Z" fill="#9AA4CB"/>
<path d="M15.5962 3.00995V5.57406C15.5962 5.77807 15.5151 5.97373 15.3709 6.11798C15.2266 6.26224 15.0309 6.34329 14.8269 6.34329C14.6229 6.34329 14.4273 6.26224 14.283 6.11798C14.1387 5.97373 14.0577 5.77807 14.0577 5.57406V3.00995C14.0577 2.80594 14.1387 2.61028 14.283 2.46603C14.4273 2.32177 14.6229 2.24072 14.8269 2.24072C15.0309 2.24072 15.2266 2.32177 15.3709 2.46603C15.5151 2.61028 15.5962 2.80594 15.5962 3.00995Z" fill="#9AA4CB"/>
</svg>
