<svg width="24" height="25" viewBox="0 0 24 25" fill="none" xmlns="http://www.w3.org/2000/svg">
<path d="M15.5385 11.7306C17.7949 11.7306 19.641 9.89383 19.641 7.64894C19.641 5.40404 17.7949 3.5673 15.5385 3.5673C15.4359 3.5673 15.3334 3.5673 15.2308 3.5673C15.8462 4.58771 16.2564 5.8122 16.2564 7.03669C16.2564 8.77139 15.5385 10.404 14.4103 11.6285C14.718 11.7306 15.1282 11.7306 15.5385 11.7306Z" fill="#9AA4CB"/>
<path d="M17.2821 13.8733H16.2565C17.7949 15.1998 18.8206 17.2406 18.8206 19.4855C18.8206 19.9957 18.718 20.4039 18.6154 20.8121C19.9488 20.608 20.7693 20.3018 21.2821 19.9957C21.7949 19.6896 22.0001 19.1794 22.0001 18.5672C22.0001 16.0161 19.8462 13.8733 17.2821 13.8733Z" fill="#9AA4CB"/>
<path d="M9.38459 11.7305C10.6154 11.7305 11.641 11.3224 12.5641 10.506C13.5897 9.6897 14.1025 8.36317 14.1025 7.03664C14.1025 6.01623 13.7948 4.99582 13.1795 4.28154C12.3589 3.05705 11.0256 2.24072 9.38459 2.24072C6.82049 2.24072 4.66664 4.38358 4.66664 6.9346C4.66664 9.58766 6.82049 11.7305 9.38459 11.7305Z" fill="#9AA4CB"/>
<path d="M12.1538 14.1796C11.8462 14.1796 11.641 14.0776 11.3333 14.0776H7.4359C4.46154 14.0776 2 16.5265 2 19.4857C2 20.2 2.30769 20.7102 2.82051 21.1184C3.64103 21.6286 5.58974 22.2408 9.38461 22.2408C13.1795 22.2408 15.0256 21.6286 15.9487 21.1184C15.9487 21.1184 16.0513 21.0163 16.1538 21.0163C16.5641 20.7102 16.8718 20.2 16.8718 19.4857C16.7692 16.8327 14.8205 14.5878 12.1538 14.1796Z" fill="#9AA4CB"/>
</svg>
