<svg width="24" height="25" viewBox="0 0 24 25" fill="none" xmlns="http://www.w3.org/2000/svg">
<path d="M15.8513 11.9289C16.0596 12.0328 16.372 12.0328 16.6845 12.0328C18.5591 12.0328 20.1213 10.4744 20.1213 8.60426C20.1213 6.73413 18.5591 5.17569 16.6845 5.17569C16.5803 5.17569 16.5803 5.17569 16.4762 5.17569C17.1011 6.00685 17.4135 7.04582 17.4135 8.18867C17.4135 9.53932 16.8928 10.89 15.8513 11.9289Z" fill="#9AA4CB"/>
<path d="M18.0383 13.3836H17.3093C18.6632 14.4226 19.4964 16.0849 19.4964 17.9551C19.4964 18.3706 19.3922 18.7862 19.2881 19.2018C20.3295 18.994 20.9544 18.7862 21.371 18.5784C21.7876 18.3706 21.9959 17.8512 21.9959 17.3317C22.1 15.1499 20.2254 13.3836 18.0383 13.3836Z" fill="#9AA4CB"/>
<path d="M7.31142 12.033C7.62386 12.033 7.83215 12.033 8.14458 11.9291C7.20728 10.8901 6.58241 9.64337 6.58241 8.08493C6.58241 6.94207 6.89484 5.90311 7.51971 5.07194C7.51971 5.07194 7.41557 5.07194 7.31142 5.07194C5.43681 5.07194 3.87463 6.63038 3.87463 8.50051C3.87463 10.3706 5.33267 12.033 7.31142 12.033Z" fill="#9AA4CB"/>
<path d="M6.58238 13.3836H5.95751C3.77047 13.3836 2 15.1499 2 17.3317C2 17.8512 2.20829 18.3706 2.62487 18.5784C3.04145 18.7862 3.66632 19.0979 4.70777 19.2018C4.60363 18.7862 4.49948 18.3706 4.49948 17.9551C4.49948 16.1888 5.2285 14.5265 6.58238 13.3836Z" fill="#9AA4CB"/>
<path d="M9.60264 11.0979C10.2275 11.6173 11.0607 11.929 11.998 11.929C12.9353 11.929 13.7684 11.6173 14.3933 11.0979C15.3306 10.3706 15.8513 9.33163 15.8513 8.08488C15.8513 7.14981 15.5389 6.21475 14.914 5.59137C14.185 4.7602 13.1436 4.24072 11.998 4.24072C10.8524 4.24072 9.70679 4.7602 9.08192 5.59137C8.45705 6.21475 8.04047 7.14981 8.04047 8.08488C8.04047 9.33163 8.66534 10.3706 9.60264 11.0979Z" fill="#9AA4CB"/>
<path d="M14.0807 13.5914C13.8724 13.5914 13.6642 13.5914 13.4559 13.5914H10.3315C10.1232 13.5914 9.91493 13.5914 9.70664 13.5914C7.51959 13.9031 5.85327 15.7732 5.85327 17.955C5.85327 18.5784 6.16571 19.0979 6.58229 19.3057C7.3113 19.7212 8.76933 20.2407 11.7895 20.2407C14.8097 20.2407 16.2678 19.7212 16.9968 19.3057C17.5175 18.994 17.7258 18.4745 17.7258 17.955C18.0382 15.7732 16.2678 13.9031 14.0807 13.5914Z" fill="#9AA4CB"/>
</svg>
