<svg width="24" height="24" viewBox="0 0 24 24" fill="none" xmlns="http://www.w3.org/2000/svg">
<path fill-rule="evenodd" clip-rule="evenodd" d="M12 3.53846C7.32682 3.53846 3.53846 7.32682 3.53846 12C3.53846 16.6732 7.32682 20.4615 12 20.4615C16.6732 20.4615 20.4615 16.6732 20.4615 12C20.4615 7.32682 16.6732 3.53846 12 3.53846ZM2 12C2 6.47715 6.47715 2 12 2C17.5228 2 22 6.47715 22 12C22 17.5228 17.5228 22 12 22C6.47715 22 2 17.5228 2 12Z" fill="#5276F4"/>
<path fill-rule="evenodd" clip-rule="evenodd" d="M12 8.32986C12.4248 8.32986 12.7692 8.67425 12.7692 9.09909L12.7692 11.2308L14.901 11.2308C15.3258 11.2308 15.6702 11.5752 15.6702 12C15.6702 12.4249 15.3258 12.7693 14.901 12.7693L12.7692 12.7693L12.7692 14.901C12.7692 15.3258 12.4248 15.6702 12 15.6702C11.5752 15.6702 11.2308 15.3258 11.2308 14.901L11.2308 12.7693L9.09905 12.7693C8.67421 12.7693 8.32982 12.4249 8.32982 12C8.32982 11.5752 8.67421 11.2308 9.09905 11.2308L11.2308 11.2308L11.2308 9.09909C11.2308 8.67425 11.5752 8.32986 12 8.32986Z" fill="#5276F4"/>
</svg>
