<svg width="24" height="24" viewBox="0 0 24 24" fill="none" xmlns="http://www.w3.org/2000/svg">
<path d="M12 2C6.4898 2 2 6.4898 2 12C2 17.5102 6.4898 22 12 22C17.5102 22 22 17.5102 22 12C22 6.4898 17.5102 2 12 2ZM13.0204 12L9.55102 15.5714C9.34694 15.6735 9.2449 15.7755 9.04082 15.7755C8.83674 15.7755 8.63265 15.6735 8.53061 15.5714C8.22449 15.2653 8.22449 14.7551 8.53061 14.449L11.3878 11.5918V6.89796C11.3878 6.4898 11.6939 6.08163 12.2041 6.08163C12.7143 6.08163 13.0204 6.38776 13.0204 6.89796V12Z" fill="#D0D5E7"/>
</svg>