<svg width="32" height="16" viewBox="0 0 32 16" fill="none" xmlns="http://www.w3.org/2000/svg">
<path fill-rule="evenodd" clip-rule="evenodd" d="M2.29022 7.66275C2.10838 7.45493 2.12944 7.13905 2.33726 6.95721L7.67059 2.29054C7.8591 2.12559 8.14058 2.12559 8.32909 2.29054L13.6624 6.95721C13.8702 7.13905 13.8913 7.45493 13.7095 7.66275C13.5276 7.87057 13.2117 7.89163 13.0039 7.70979L8.49984 3.76871L8.49984 13.3335C8.49984 13.6096 8.27599 13.8335 7.99984 13.8335C7.7237 13.8335 7.49984 13.6096 7.49984 13.3335L7.49984 3.76871L2.99576 7.70979C2.78794 7.89163 2.47206 7.87057 2.29022 7.66275Z" fill="#5276F4"/>
<path fill-rule="evenodd" clip-rule="evenodd" d="M29.7098 8.3375C29.8916 8.54531 29.8706 8.86119 29.6627 9.04304L24.3294 13.7097C24.1409 13.8747 23.8594 13.8747 23.6709 13.7097L18.3376 9.04304C18.1298 8.86119 18.1087 8.54531 18.2905 8.33749C18.4724 8.12968 18.7883 8.10862 18.9961 8.29046L23.5002 12.2315L23.5002 2.66675C23.5002 2.39061 23.724 2.16675 24.0002 2.16675C24.2763 2.16675 24.5002 2.39061 24.5002 2.66675L24.5002 12.2315L29.0042 8.29046C29.2121 8.10862 29.5279 8.12968 29.7098 8.3375Z" fill="#EEF0F6"/>
</svg>
