<svg width="16" height="16" viewBox="0 0 16 16" fill="none" xmlns="http://www.w3.org/2000/svg">
<path d="M13.9922 2.85677L13.0933 1.95409C12.2693 1.12663 10.9959 1.12663 10.172 1.95409L8.67383 3.53378L12.4941 7.37017L14.0671 5.79048C14.4416 5.41436 14.6663 4.8878 14.6663 4.36123C14.6663 3.83467 14.3667 3.23289 13.9922 2.85677Z" fill="#D0D5E7"/>
<path d="M10.8461 7.29494L7.84986 4.28601L1.93226 10.2287C1.55773 10.6048 1.33301 11.1313 1.33301 11.7331V14.065C1.33301 14.3659 1.55773 14.6668 1.93226 14.6668H4.32926C4.85361 14.6668 5.37795 14.4412 5.82739 14.065L11.745 8.1224L10.8461 7.29494Z" fill="#D0D5E7"/>
</svg>
