<svg width="16" height="16" viewBox="0 0 16 16" fill="none" xmlns="http://www.w3.org/2000/svg">
<path d="M3.41911 5.43606C3.41911 6.94033 3.41911 9.05999 3.41911 10.0856C3.48748 10.9745 3.55586 12.1369 3.62424 12.9574C3.69261 13.9147 4.51313 14.6668 5.47039 14.6668H10.5302C11.4875 14.6668 12.308 13.9147 12.3764 12.9574C12.4447 12.1369 12.5131 10.9745 12.5815 10.0856C12.6499 9.05999 12.5815 6.94033 12.5815 5.43606H3.41911Z" fill="#D0D5E7"/>
<path d="M12.7867 3.38478H11.0772L10.5302 2.35914C10.1884 1.74375 9.57298 1.3335 8.88921 1.3335H7.24819C6.56443 1.3335 5.88067 1.74375 5.60716 2.35914L4.9234 3.38478H3.214C2.9405 3.38478 2.66699 3.65828 2.66699 3.93179C2.66699 4.20529 2.9405 4.4788 3.214 4.4788H12.7867C13.0602 4.4788 13.3337 4.27367 13.3337 3.93179C13.3337 3.58991 13.0602 3.38478 12.7867 3.38478ZM6.0858 3.38478L6.42768 2.83777C6.56443 2.56427 6.83793 2.35914 7.17981 2.35914H8.82084C9.16272 2.35914 9.43622 2.49589 9.57298 2.83777L9.91486 3.38478H6.0858Z" fill="#D0D5E7"/>
</svg>
