<svg width="24" height="24" viewBox="0 0 24 24" fill="none" xmlns="http://www.w3.org/2000/svg">
<path fill-rule="evenodd" clip-rule="evenodd" d="M9.80261 19.0706C10.5137 19.2092 11.2483 19.2818 12 19.2818C16.5669 19.2818 20.4975 16.6075 22.3371 12.7418C22.5544 12.2852 22.5544 11.7549 22.3371 11.2983C21.2019 8.91274 19.2704 6.98091 16.8844 5.85128L15.4166 8.5912C16.2965 9.46794 16.8412 10.6808 16.8412 12.0201C16.8412 14.6924 14.6724 16.8612 12 16.8612C11.6705 16.8612 11.3487 16.8282 11.0376 16.7654L9.80261 19.0706ZM12.0237 14.9247C13.6153 14.9119 14.9047 13.6146 14.9047 12.0201C14.9047 11.4339 14.7305 10.8878 14.431 10.431L12.0237 14.9247ZM12.806 9.22896L10.1236 14.2362C9.49485 13.7031 9.09535 12.9076 9.09535 12.0201C9.09535 10.4176 10.3976 9.11536 12 9.11536C12.2796 9.11536 12.5501 9.155 12.806 9.22896ZM13.733 7.49865C13.1949 7.29208 12.6106 7.17887 12 7.17887C9.32771 7.17887 7.15885 9.34768 7.15885 12.02C7.15885 13.6478 7.96357 15.0888 9.19661 15.9665L7.83923 18.5003C5.12217 17.4371 2.91093 15.3634 1.66302 12.7418C1.44566 12.2852 1.44566 11.7549 1.66302 11.2983C3.50309 7.43261 7.43769 4.7583 12 4.7583C13.0349 4.7583 14.037 4.89561 14.9896 5.15298L13.733 7.49865Z" fill="#5276F4"/>
<path d="M17.6191 2.85791L7.63423 21.4964" stroke="#5276F4" stroke-linecap="round"/>
</svg>
