<svg width="6" height="16" viewBox="0 0 6 16" fill="none" xmlns="http://www.w3.org/2000/svg">
<path d="M2.868 11.728C2.62533 11.728 2.42 11.644 2.252 11.476C2.084 11.308 2 11.1027 2 10.86C2 10.6173 2.084 10.412 2.252 10.244C2.42 10.076 2.62533 9.992 2.868 9.992C3.10133 9.992 3.29733 10.076 3.456 10.244C3.624 10.412 3.708 10.6173 3.708 10.86C3.708 11.1027 3.624 11.308 3.456 11.476C3.29733 11.644 3.10133 11.728 2.868 11.728ZM2.868 5.736C2.62533 5.736 2.42 5.652 2.252 5.484C2.084 5.316 2 5.11067 2 4.868C2 4.62533 2.084 4.42 2.252 4.252C2.42 4.084 2.62533 4 2.868 4C3.10133 4 3.29733 4.084 3.456 4.252C3.624 4.42 3.708 4.62533 3.708 4.868C3.708 5.11067 3.624 5.316 3.456 5.484C3.29733 5.652 3.10133 5.736 2.868 5.736Z" fill="#9AA4CB"/>
</svg>
