<svg width="48" height="48" viewBox="0 0 48 48" fill="none" xmlns="http://www.w3.org/2000/svg">
<path fill-rule="evenodd" clip-rule="evenodd" d="M24 48C37.2548 48 48 37.2548 48 24C48 10.7452 37.2548 0 24 0C10.7452 0 0 10.7452 0 24C0 37.2548 10.7452 48 24 48ZM28.2198 19.6268C28.2198 21.9455 26.3305 23.8251 24 23.8251C21.6695 23.8251 19.7802 21.9455 19.7802 19.6268C19.7802 17.3082 21.6695 15.4286 24 15.4286C26.3305 15.4286 28.2198 17.3082 28.2198 19.6268ZM17.1429 30.21C17.1429 27.6736 19.2527 25.5744 21.8022 25.5744H26.1978C28.7473 25.5744 30.8571 27.5861 30.8571 30.21C30.8571 30.8222 30.5055 31.347 30.0659 31.6094C29.2747 32.0467 27.5165 32.5715 24 32.5715C20.4835 32.5715 18.7253 32.0467 17.9341 31.6094C17.4066 31.347 17.1429 30.8222 17.1429 30.21Z" fill="#EEF0F6"/>
</svg>
