<svg width="30" height="16" viewBox="0 0 30 16" fill="none" xmlns="http://www.w3.org/2000/svg">
<mask id="path-1-inside-1_1830:6068" fill="white">
<path fill-rule="evenodd" clip-rule="evenodd" d="M8 0C3.58172 0 0 3.58172 0 8C0 12.4183 3.58172 16 8 16H22C26.4183 16 30 12.4183 30 8C30 3.58172 26.4183 0 22 0H8ZM8 14C11.3137 14 14 11.3137 14 8C14 4.68629 11.3137 2 8 2C4.68629 2 2 4.68629 2 8C2 11.3137 4.68629 14 8 14Z"/>
</mask>
<path fill-rule="evenodd" clip-rule="evenodd" d="M8 0C3.58172 0 0 3.58172 0 8C0 12.4183 3.58172 16 8 16H22C26.4183 16 30 12.4183 30 8C30 3.58172 26.4183 0 22 0H8ZM8 14C11.3137 14 14 11.3137 14 8C14 4.68629 11.3137 2 8 2C4.68629 2 2 4.68629 2 8C2 11.3137 4.68629 14 8 14Z" fill="#D0D5E7"/>
<path d="M1 8C1 4.13401 4.13401 1 8 1V-1C3.02944 -1 -1 3.02944 -1 8H1ZM8 15C4.13401 15 1 11.866 1 8H-1C-1 12.9706 3.02944 17 8 17V15ZM22 15H8V17H22V15ZM29 8C29 11.866 25.866 15 22 15V17C26.9706 17 31 12.9706 31 8H29ZM22 1C25.866 1 29 4.13401 29 8H31C31 3.02944 26.9706 -1 22 -1V1ZM8 1H22V-1H8V1ZM13 8C13 10.7614 10.7614 13 8 13V15C11.866 15 15 11.866 15 8H13ZM8 3C10.7614 3 13 5.23858 13 8H15C15 4.13401 11.866 1 8 1V3ZM3 8C3 5.23858 5.23858 3 8 3V1C4.13401 1 1 4.13401 1 8H3ZM8 13C5.23858 13 3 10.7614 3 8H1C1 11.866 4.13401 15 8 15V13Z" fill="#D0D5E7" mask="url(#path-1-inside-1_1830:6068)"/>
</svg>
