<svg width="30" height="16" viewBox="0 0 30 16" fill="none" xmlns="http://www.w3.org/2000/svg">
<mask id="path-1-inside-1_1834:20574" fill="white">
<path fill-rule="evenodd" clip-rule="evenodd" d="M8 0C3.58172 0 0 3.58172 0 8C0 12.4183 3.58172 16 8 16H22C26.4183 16 30 12.4183 30 8C30 3.58172 26.4183 0 22 0H8ZM22 14C25.3137 14 28 11.3137 28 8C28 4.68629 25.3137 2 22 2C18.6863 2 16 4.68629 16 8C16 11.3137 18.6863 14 22 14Z"/>
</mask>
<path fill-rule="evenodd" clip-rule="evenodd" d="M8 0C3.58172 0 0 3.58172 0 8C0 12.4183 3.58172 16 8 16H22C26.4183 16 30 12.4183 30 8C30 3.58172 26.4183 0 22 0H8ZM22 14C25.3137 14 28 11.3137 28 8C28 4.68629 25.3137 2 22 2C18.6863 2 16 4.68629 16 8C16 11.3137 18.6863 14 22 14Z" fill="#5276F4"/>
<path d="M1 8C1 4.13401 4.13401 1 8 1V-1C3.02944 -1 -1 3.02944 -1 8H1ZM8 15C4.13401 15 1 11.866 1 8H-1C-1 12.9706 3.02944 17 8 17V15ZM22 15H8V17H22V15ZM29 8C29 11.866 25.866 15 22 15V17C26.9706 17 31 12.9706 31 8H29ZM22 1C25.866 1 29 4.13401 29 8H31C31 3.02944 26.9706 -1 22 -1V1ZM8 1H22V-1H8V1ZM27 8C27 10.7614 24.7614 13 22 13V15C25.866 15 29 11.866 29 8H27ZM22 3C24.7614 3 27 5.23858 27 8H29C29 4.13401 25.866 1 22 1V3ZM17 8C17 5.23858 19.2386 3 22 3V1C18.134 1 15 4.13401 15 8H17ZM22 13C19.2386 13 17 10.7614 17 8H15C15 11.866 18.134 15 22 15V13Z" fill="#5276F4" mask="url(#path-1-inside-1_1834:20574)"/>
</svg>
