<svg width="16" height="16" viewBox="0 0 16 16" fill="none" xmlns="http://www.w3.org/2000/svg">
<path fill-rule="evenodd" clip-rule="evenodd" d="M2.81816 2.81767C3.01972 2.61611 3.34652 2.61611 3.54808 2.81767L8.00033 7.26992L12.4526 2.81767C12.6541 2.61611 12.9809 2.61611 13.1825 2.81767C13.384 3.01924 13.384 3.34603 13.1825 3.54759L8.73024 7.99984L13.1825 12.4521C13.384 12.6536 13.384 12.9804 13.1825 13.182C12.9809 13.3836 12.6541 13.3836 12.4526 13.182L8.00033 8.72975L3.54808 13.182C3.34652 13.3836 3.01972 13.3836 2.81816 13.182C2.6166 12.9804 2.6166 12.6536 2.81816 12.4521L7.27041 7.99984L2.81816 3.54759C2.6166 3.34603 2.6166 3.01924 2.81816 2.81767Z" fill="#9AA4CB"/>
</svg>
